<?xml version="1.0" encoding="UTF-8"?>
<svg id="Layer_2" data-name="Layer 2" xmlns="http://www.w3.org/2000/svg" viewBox="0 0 131.61 44">
  <defs>
    <style>
      .cls-1 {
        fill: #0069ff;
      }

      .cls-2 {
        fill: #fff;
      }
    </style>
  </defs>
  <g id="Layer_1-2" data-name="Layer 1">
    <g>
      <g>
        <path class="cls-2" d="m33.38,12.57l-12.22-7.06c-.85-.49-1.89-.49-2.74,0l-12.22,7.06c-.85.49-1.37,1.39-1.37,2.37v10.95c0,2.11,2.28,3.43,4.11,2.37l9.48-5.47c.85-.49,1.89-.49,2.74,0l9.48,5.47c1.83,1.06,4.11-.26,4.11-2.37v-10.95c0-.98-.52-1.88-1.37-2.37Z"/>
        <path class="cls-1" d="m36.83,8.99L22.53.73c-1.7-.98-3.79-.98-5.48,0L2.74,8.99c-1.7.98-2.74,2.79-2.74,4.75v16.52c0,1.96,1.05,3.77,2.74,4.75l14.3,8.26c1.7.98,3.79.98,5.48,0l14.3-8.26c1.7-.98,2.74-2.79,2.74-4.75V13.74c0-1.96-1.05-3.77-2.74-4.75Zm-6.19,19.27l-9.48-5.47c-.85-.49-1.89-.49-2.74,0l-9.48,5.47c-1.83,1.06-4.11-.26-4.11-2.37v-10.95c0-.98.52-1.88,1.37-2.37l12.22-7.06c.85-.49,1.89-.49,2.74,0l12.22,7.06c.85.49,1.37,1.39,1.37,2.37v10.95c0,2.11-2.28,3.43-4.11,2.37Z"/>
      </g>
      <g>
        <path d="m61.4,28.22c-.94-.93-1.41-2.15-1.41-3.67v-2.94c0-1.05.22-1.97.67-2.78.45-.8,1.08-1.42,1.88-1.86.81-.44,1.75-.66,2.81-.66h1.42c.5,0,1.01.11,1.52.32.52.22.95.5,1.29.86v-6.17h3.51v18.07h-3.25v-1.7c-.34.57-.81,1.03-1.39,1.38-.59.35-1.2.53-1.83.53h-1.52c-1.53,0-2.77-.46-3.7-1.39Zm5.62-1.63c.71,0,1.29-.25,1.77-.76.47-.51.74-1.18.81-2.03v-2.25c-.12-.67-.38-1.21-.79-1.61-.4-.4-.88-.61-1.43-.61h-1.57c-.69,0-1.24.23-1.67.7-.42.46-.63,1.08-.63,1.83v2.43c0,.69.19,1.24.57,1.67.38.42.87.63,1.47.63h1.47Z"/>
        <path d="m78.24,29.01c-.84-.4-1.48-.97-1.95-1.7-.46-.73-.7-1.57-.7-2.52v-3.33c0-1.02.23-1.91.7-2.68.46-.77,1.11-1.38,1.95-1.81.83-.43,1.79-.65,2.88-.65h2.07c1.65,0,2.98.46,3.98,1.39,1,.93,1.5,2.17,1.5,3.72v2.74h-9.55v.62c0,.57.18,1.02.54,1.37.36.34.85.52,1.47.52h2.01c.6,0,1.09-.13,1.46-.4.37-.27.56-.62.56-1.05h3.46c0,.86-.23,1.63-.7,2.3-.46.67-1.11,1.19-1.95,1.55-.84.36-1.79.54-2.88.54h-1.96c-1.08,0-2.04-.2-2.88-.61Zm6.96-7.37v-.21c0-.67-.18-1.21-.54-1.61-.36-.4-.84-.61-1.45-.61h-2.09c-.62,0-1.12.22-1.5.65-.38.43-.57,1-.57,1.7v.08h6.14Z"/>
        <path d="m91.83,28.37c-.95-.83-1.42-1.91-1.42-3.25h3.46c0,.46.16.84.48,1.12.32.28.74.43,1.25.43h2.32c1.03,0,1.55-.28,1.55-.85v-.44c0-.17-.09-.33-.26-.48-.17-.15-.4-.25-.7-.3l-4.47-.77c-1.05-.17-1.88-.55-2.49-1.12-.61-.58-.92-1.25-.92-2.03v-.85c0-1.1.45-1.96,1.36-2.58.9-.62,2.16-.93,3.78-.93h2.01c1.45,0,2.61.38,3.5,1.15.89.77,1.33,1.78,1.33,3.03h-3.46c0-.38-.13-.68-.37-.9-.25-.22-.58-.34-.99-.34h-1.96c-1.12,0-1.68.26-1.68.77v.41c0,.19.07.35.22.48.15.13.36.22.63.27l4.7.85c.98.17,1.77.54,2.38,1.1.6.56.9,1.19.9,1.9v.93c0,1.12-.46,2.01-1.38,2.66-.92.65-2.15.98-3.68.98h-2.32c-1.57,0-2.82-.41-3.77-1.24Z"/>
        <path d="m106,28.37c-.95-.83-1.42-1.91-1.42-3.25h3.46c0,.46.16.84.48,1.12.32.28.74.43,1.25.43h2.32c1.03,0,1.55-.28,1.55-.85v-.44c0-.17-.09-.33-.26-.48-.17-.15-.4-.25-.7-.3l-4.47-.77c-1.05-.17-1.88-.55-2.49-1.12-.61-.58-.92-1.25-.92-2.03v-.85c0-1.1.45-1.96,1.36-2.58.9-.62,2.16-.93,3.78-.93h2.01c1.45,0,2.61.38,3.5,1.15.89.77,1.33,1.78,1.33,3.03h-3.46c0-.38-.13-.68-.37-.9-.25-.22-.58-.34-.99-.34h-1.96c-1.12,0-1.68.26-1.68.77v.41c0,.19.07.35.22.48.15.13.36.22.63.27l4.7.85c.98.17,1.77.54,2.38,1.1.6.56.9,1.19.9,1.9v.93c0,1.12-.46,2.01-1.38,2.66-.92.65-2.15.98-3.68.98h-2.32c-1.57,0-2.82-.41-3.77-1.24Z"/>
        <path d="m120.2,28.61c-.83-.67-1.24-1.56-1.24-2.66v-.96c0-1.08.43-1.96,1.29-2.62.86-.66,2-.99,3.41-.99h1.57c.45,0,.93.06,1.45.18.52.12.99.28,1.42.49v-1.34c0-.43-.14-.78-.43-1.05-.28-.27-.66-.4-1.12-.4h-2.22c-.48,0-.87.11-1.16.34-.29.22-.44.53-.44.9h-3.41c0-1.26.46-2.27,1.38-3.03.92-.77,2.13-1.15,3.63-1.15h2.22c1.51,0,2.74.4,3.67,1.2.93.8,1.39,1.86,1.39,3.19v8.7h-3.25v-1.55c-.41.53-.92.96-1.52,1.28-.6.32-1.2.48-1.78.48h-1.6c-1.34,0-2.43-.34-3.25-1.01Zm5.11-1.68c.64,0,1.2-.16,1.7-.49.5-.33.86-.77,1.08-1.32v-.44c-.28-.21-.66-.37-1.15-.49-.49-.12-1.01-.18-1.56-.18h-1.63c-.41,0-.75.1-1.01.31s-.39.48-.39.83v.67c0,.33.14.59.43.8.28.21.66.31,1.12.31h1.39Z"/>
      </g>
    </g>
  </g>
</svg>