<?xml version="1.0" encoding="UTF-8" standalone="no"?>
<!-- Created with Inkscape (http://www.inkscape.org/) -->

<svg
   version="1.1"
   id="svg2"
   width="184"
   height="58.666668"
   viewBox="0 0 184 58.666668"
   sodipodi:docname="header-logo.ai"
   xmlns:inkscape="http://www.inkscape.org/namespaces/inkscape"
   xmlns:sodipodi="http://sodipodi.sourceforge.net/DTD/sodipodi-0.dtd"
   xmlns="http://www.w3.org/2000/svg"
   xmlns:svg="http://www.w3.org/2000/svg">
  <defs
     id="defs6">
    <clipPath
       clipPathUnits="userSpaceOnUse"
       id="clipPath16">
      <path
         d="M 0,44 H 138 V 0 H 0 Z"
         id="path14" />
    </clipPath>
  </defs>
  <sodipodi:namedview
     id="namedview4"
     pagecolor="#ffffff"
     bordercolor="#000000"
     borderopacity="0.25"
     inkscape:showpageshadow="2"
     inkscape:pageopacity="0.0"
     inkscape:pagecheckerboard="0"
     inkscape:deskcolor="#d1d1d1" />
  <g
     id="g8"
     inkscape:groupmode="layer"
     inkscape:label="header-logo"
     transform="matrix(1.3333333,0,0,-1.3333333,0,58.666667)">
    <g
       id="g10">
      <g
         id="g12"
         clip-path="url(#clipPath16)">
        <g
           id="g18"
           transform="translate(35.5409,16.6331)">
          <path
             d="m 0,0 -7.915,4.57 c -0.709,0.409 -1.581,0.409 -2.29,0 L -18.12,0 c -1.526,-0.881 -3.434,0.22 -3.434,1.983 v 9.14 c 0,0.817 0.436,1.573 1.144,1.982 l 10.205,5.892 c 0.709,0.409 1.581,0.409 2.29,0 L 2.289,13.105 C 2.998,12.696 3.434,11.94 3.434,11.123 V 1.983 C 3.434,0.22 1.526,-0.881 0,0 m 5.172,16.091 -11.943,6.895 c -1.416,0.818 -3.162,0.818 -4.578,0 l -11.943,-6.895 c -1.417,-0.818 -2.289,-2.329 -2.289,-3.965 v -13.79 c 0,-1.636 0.872,-3.148 2.289,-3.965 l 11.943,-6.896 c 1.416,-0.818 3.162,-0.818 4.578,0 l 11.943,6.896 c 1.417,0.817 2.289,2.329 2.289,3.965 v 13.79 c 0,1.636 -0.872,3.147 -2.289,3.965"
             style="fill:#0069ff;fill-opacity:1;fill-rule:nonzero;stroke:none"
             id="path20" />
        </g>
        <g
           id="g22"
           transform="translate(63.4466,17.2714)">
          <path
             d="M 0,0 C 0.706,0 1.295,0.254 1.768,0.762 2.242,1.269 2.513,1.945 2.582,2.788 V 5.034 C 2.461,5.706 2.198,6.243 1.794,6.648 1.39,7.052 0.912,7.255 0.361,7.255 H -1.213 C -1.902,7.255 -2.457,7.022 -2.879,6.557 -3.301,6.093 -3.511,5.482 -3.511,4.725 V 2.298 c 0,-0.689 0.189,-1.244 0.568,-1.665 C -2.565,0.211 -2.074,0 -1.472,0 Z m -5.615,-1.626 c -0.939,0.929 -1.407,2.151 -1.407,3.666 v 2.943 c 0,1.049 0.223,1.975 0.671,2.775 0.447,0.8 1.075,1.42 1.885,1.859 0.808,0.439 1.746,0.658 2.814,0.658 h 1.42 c 0.499,0 1.006,-0.108 1.523,-0.323 C 1.807,9.737 2.237,9.449 2.582,9.088 v 6.17 H 6.093 V -2.814 H 2.84 V -1.11 C 2.495,-1.678 2.031,-2.139 1.446,-2.491 0.86,-2.844 0.249,-3.021 -0.387,-3.021 H -1.91 c -1.533,0 -2.767,0.465 -3.705,1.395"
             style="fill:#ffffff;fill-opacity:1;fill-rule:nonzero;stroke:none"
             id="path24" />
        </g>
        <g
           id="g26"
           transform="translate(81.6217,22.2282)">
          <path
             d="M 0,0 V 0.207 C 0,0.878 -0.181,1.415 -0.542,1.82 -0.904,2.224 -1.386,2.427 -1.988,2.427 h -2.091 c -0.62,0 -1.119,-0.216 -1.497,-0.646 C -5.955,1.351 -6.144,0.783 -6.144,0.077 V 0 Z m -6.958,-7.371 c -0.835,0.404 -1.484,0.972 -1.949,1.704 -0.465,0.732 -0.697,1.571 -0.697,2.517 v 3.331 c 0,1.015 0.232,1.91 0.697,2.685 0.465,0.774 1.114,1.376 1.949,1.807 0.835,0.43 1.795,0.645 2.879,0.645 h 2.065 c 1.653,0 2.978,-0.464 3.976,-1.394 C 2.96,2.995 3.459,1.756 3.459,0.207 V -2.53 h -9.552 v -0.62 c 0,-0.568 0.181,-1.024 0.542,-1.368 0.362,-0.344 0.852,-0.516 1.472,-0.516 h 2.014 c 0.602,0 1.088,0.133 1.458,0.4 0.37,0.266 0.555,0.615 0.555,1.045 h 3.46 c 0,-0.86 -0.233,-1.626 -0.697,-2.297 C 2.246,-6.558 1.596,-7.074 0.762,-7.435 -0.073,-7.797 -1.033,-7.977 -2.117,-7.977 h -1.962 c -1.084,0 -2.044,0.202 -2.879,0.606"
             style="fill:#ffffff;fill-opacity:1;fill-rule:nonzero;stroke:none"
             id="path28" />
        </g>
        <g
           id="g30"
           transform="translate(88.2567,15.49)">
          <path
             d="M 0,0 C -0.947,0.826 -1.42,1.91 -1.42,3.253 H 2.04 C 2.04,2.788 2.198,2.414 2.517,2.13 2.835,1.846 3.253,1.704 3.769,1.704 h 2.324 c 1.032,0 1.549,0.284 1.549,0.852 V 2.995 C 7.642,3.167 7.555,3.326 7.384,3.472 7.211,3.618 6.979,3.718 6.687,3.769 L 2.22,4.544 C 1.17,4.716 0.34,5.09 -0.271,5.667 -0.882,6.243 -1.188,6.919 -1.188,7.693 v 0.852 c 0,1.102 0.452,1.963 1.356,2.582 0.903,0.62 2.164,0.93 3.782,0.93 h 2.014 c 1.445,0 2.611,-0.384 3.498,-1.149 0.886,-0.766 1.329,-1.778 1.329,-3.034 H 7.332 c 0,0.379 -0.125,0.68 -0.374,0.904 C 6.708,9.001 6.377,9.113 5.964,9.113 H 4.002 C 2.883,9.113 2.323,8.855 2.323,8.339 V 7.926 c 0,-0.19 0.074,-0.349 0.22,-0.478 C 2.689,7.319 2.9,7.229 3.175,7.177 L 7.874,6.325 C 8.855,6.153 9.647,5.787 10.249,5.228 10.852,4.668 11.153,4.036 11.153,3.33 V 2.401 C 11.153,1.282 10.692,0.396 9.772,-0.258 8.851,-0.912 7.624,-1.239 6.093,-1.239 H 3.769 C 2.203,-1.239 0.946,-0.826 0,0"
             style="fill:#ffffff;fill-opacity:1;fill-rule:nonzero;stroke:none"
             id="path32" />
        </g>
        <g
           id="g34"
           transform="translate(102.4302,15.49)">
          <path
             d="M 0,0 C -0.947,0.826 -1.42,1.91 -1.42,3.253 H 2.04 C 2.04,2.788 2.198,2.414 2.517,2.13 2.835,1.846 3.253,1.704 3.769,1.704 h 2.324 c 1.032,0 1.549,0.284 1.549,0.852 V 2.995 C 7.642,3.167 7.555,3.326 7.384,3.472 7.211,3.618 6.979,3.718 6.687,3.769 L 2.22,4.544 C 1.17,4.716 0.34,5.09 -0.271,5.667 -0.882,6.243 -1.188,6.919 -1.188,7.693 v 0.852 c 0,1.102 0.452,1.963 1.356,2.582 0.903,0.62 2.164,0.93 3.782,0.93 h 2.014 c 1.445,0 2.611,-0.384 3.498,-1.149 0.886,-0.766 1.329,-1.778 1.329,-3.034 H 7.332 c 0,0.379 -0.125,0.68 -0.374,0.904 C 6.708,9.001 6.377,9.113 5.964,9.113 H 4.002 C 2.883,9.113 2.323,8.855 2.323,8.339 V 7.926 c 0,-0.19 0.074,-0.349 0.22,-0.478 C 2.689,7.319 2.9,7.229 3.175,7.177 L 7.874,6.325 C 8.855,6.153 9.647,5.787 10.249,5.228 10.852,4.668 11.153,4.036 11.153,3.33 V 2.401 C 11.153,1.282 10.692,0.396 9.772,-0.258 8.851,-0.912 7.624,-1.239 6.093,-1.239 H 3.769 C 2.203,-1.239 0.946,-0.826 0,0"
             style="fill:#ffffff;fill-opacity:1;fill-rule:nonzero;stroke:none"
             id="path36" />
        </g>
        <g
           id="g38"
           transform="translate(121.7413,16.9358)">
          <path
             d="m 0,0 c 0.637,0 1.205,0.163 1.704,0.491 0.499,0.326 0.86,0.765 1.084,1.316 V 2.246 C 2.513,2.453 2.13,2.616 1.639,2.737 1.149,2.857 0.628,2.917 0.077,2.917 H -1.549 C -1.962,2.917 -2.298,2.814 -2.556,2.608 -2.814,2.401 -2.943,2.125 -2.943,1.781 V 1.11 c 0,-0.327 0.142,-0.594 0.426,-0.8 C -2.233,0.103 -1.859,0 -1.394,0 Z m -5.112,-1.678 c -0.826,0.671 -1.239,1.557 -1.239,2.659 v 0.955 c 0,1.085 0.43,1.958 1.291,2.621 0.86,0.662 1.996,0.994 3.408,0.994 h 1.575 C 0.37,5.551 0.852,5.49 1.368,5.37 1.885,5.249 2.358,5.086 2.788,4.879 V 6.222 C 2.788,6.652 2.646,7 2.362,7.267 2.078,7.534 1.704,7.668 1.239,7.668 h -2.22 C -1.463,7.668 -1.85,7.555 -2.143,7.332 -2.436,7.108 -2.582,6.807 -2.582,6.428 H -5.99 c 0,1.257 0.461,2.268 1.382,3.034 0.92,0.766 2.13,1.149 3.627,1.149 h 2.22 c 1.515,0 2.737,-0.4 3.666,-1.201 0.93,-0.8 1.394,-1.863 1.394,-3.188 v -8.7 H 3.046 v 1.549 C 2.633,-1.463 2.125,-1.889 1.523,-2.207 0.921,-2.526 0.327,-2.685 -0.258,-2.685 h -1.601 c -1.342,0 -2.427,0.336 -3.253,1.007"
             style="fill:#ffffff;fill-opacity:1;fill-rule:nonzero;stroke:none"
             id="path40" />
        </g>
      </g>
    </g>
  </g>
</svg>
