<?xml version="1.0" encoding="UTF-8"?>
<svg id="Layer_1" data-name="Layer 1" xmlns="http://www.w3.org/2000/svg" viewBox="0 0 53.97 60">
  <defs>
    <style>
      .cls-1 {
        fill: #0069ff;
      }
    </style>
  </defs>
  <path class="cls-1" d="m50.23,12.26L30.72,1c-2.31-1.34-5.16-1.34-7.48,0L3.74,12.26c-2.31,1.34-3.74,3.8-3.74,6.48v22.52c0,2.67,1.43,5.14,3.74,6.48l19.5,11.26c2.31,1.34,5.16,1.34,7.48,0l19.5-11.26c2.31-1.34,3.74-3.8,3.74-6.48v-22.52c0-2.67-1.43-5.14-3.74-6.48Zm-8.45,26.28l-12.93-7.46c-1.16-.67-2.58-.67-3.74,0l-12.93,7.46c-2.49,1.44-5.61-.36-5.61-3.24v-14.93c0-1.34.71-2.57,1.87-3.24L25.11,7.52c1.16-.67,2.58-.67,3.74,0l16.67,9.62c1.16.67,1.87,1.9,1.87,3.24v14.93c0,2.88-3.12,4.68-5.61,3.24Z"/>
</svg>